<svg width="1179" height="956" viewBox="0 0 1179 956" fill="none" xmlns="http://www.w3.org/2000/svg">
<path fill-rule="evenodd" clip-rule="evenodd" d="M488 60C440.403 109.636 395.026 161.353 352 215C325.73 247.569 298.382 279.254 270 310L257 326C231 357 221 369 222 370L234 367C264.884 357.286 295.886 347.952 327 339C518.917 282.385 710.917 226.052 903 170C839.703 127.383 768.717 97.4942 694 82C658.398 73.3399 622.342 66.663 586 62C552 58 492 57 488 60ZM595 143C551 148 530 173 554 191C580 212 660 208 682 185C706 159 658 136 595 143ZM416 198C402 199 384 206 374 213C341 237 397 260 453 245C510 230 480 193 416 198Z" fill="#FEFEFD"/>
<path fill-rule="evenodd" clip-rule="evenodd" d="M475 14C464 16 462 18 447 37C433.825 52.7494 419.805 67.7716 405 82C355.072 139.155 305.736 196.825 257 255C243.437 271.703 229.432 288.042 215 304C202 318 182 345 179 351C176 357 175 371 175 429C174 495 173 492 204 493C225 494 226 494 229 501C237 518 220 536 194 538C177 540 174 546 174 572C175 605 173 633 171 634L156 638L143 640L132 642L120 644L112 646L108 648L102 651C76.6427 663.186 54.9213 681.805 39 705C30.0242 719.707 22.9669 735.502 18 752C12.4086 769.851 10.5881 788.669 12.6538 807.261C14.7196 825.852 20.6265 843.812 30 860C32.577 864.541 34.9136 869.214 37 874L43 881C64.632 909.589 95.2906 930.028 130 939C436.647 945.264 743.4 944.263 1050 936C1083 928 1103 917 1124 898C1132 891 1135 888 1143 876L1148 869L1151 865L1156 855C1159.5 849.265 1162.51 843.243 1165 837C1168 833 1171 820 1174 796C1175.62 766.335 1168.67 736.831 1154 711C1143.24 689.833 1127.44 671.634 1108 658L1098 650C1096 647 1091 644 1088 642L1076 635C1061 625 1072 626 920 625C785 625 785 625 799 622L816 619L827 617L844 613C888.524 601.425 932.277 587.064 975 570C976 568 977 398 975 392C972 382 965 379 940 376C904 372 908 339 944 337C964 335 973 329 975 317C978 295 977 191 973 181C963 156 948 140 914 121L900 113C843.818 79.427 782.754 54.7991 719 40C703.568 37.1387 688.227 33.8038 673 30L661 27L647 24L636 23L625 22C607.221 18.2008 589.161 15.8597 571 15L552 14C531 12 484 12 475 14ZM489 58C449.284 98.8123 411.572 141.529 376 186C356.478 207.544 337.472 229.55 319 252C285.033 289.892 252.348 328.914 221 369C220 371 219 443 221 445L229 446C298 446 299 559 230 576C219 579 220 577 220 608C220 633 220 633 294 632C376 632 370 632 371 628C376 600 413 577 443 583L452 584C467 586 484 600 494 619C499 629 494 628 552 628C625 628 639 627 642 624C653 612 663 608 712 596C752.615 586.059 792.962 575.056 833 563L917 539C930 535 929 538 930 510C933 420 933 419 927 419C851 419 844 307 919 294C932 292 931 295 932 257C933 203 931 196 916 180C881 144 773 98 680 78C617.336 63.8752 553.23 57.1625 489 58ZM682 378C675.165 380.411 669.032 384.474 664.146 389.826C659.259 395.178 655.77 401.655 653.989 408.68C652.208 415.706 652.19 423.062 653.936 430.096C655.683 437.13 659.14 443.624 664 449C699 487 758 444 734 399C729.128 389.998 721.27 382.975 711.779 379.142C702.288 375.309 691.757 374.905 682 378ZM416 386C378 399 374 449 409 465C448 484 487 439 463 403C457.815 395.733 450.543 390.215 442.148 387.179C433.753 384.142 424.634 383.731 416 386ZM609 455C605 456 602 458 597 466C579 494 544 494 524 467C506 441 482 468 499 496C523 538 595 537 624 495C638 475 628 449 609 455ZM1021 717C1017 720 1015 723 1009 739C1003 754 1005 753 988 754C970 755 961 758 956 763C949 769 950 770 968 788C985 806 984 803 979 819C970 849 982 861 1006 845C1031 828 1027 827 1053 846C1071 860 1081 842 1071 813C1067 803 1068 801 1077 795C1088 785 1099 772 1099 767C1099 759 1085 755 1056 754C1046 753 1047 754 1045 743C1041 720 1032 710 1021 717ZM809 719C805 722 803 725 797 741C791 756 793 755 776 756C758 757 749 760 744 765C737 771 738 772 756 790C773 808 772 805 767 821C758 851 770 863 794 847C819 830 815 829 841 848C859 862 869 844 859 815C855 805 856 803 865 797C876 787 887 774 887 769C887 761 873 757 844 756C834 755 835 756 833 745C829 722 820 712 809 719ZM600 721C596 724 594 727 588 743C582 758 584 757 567 758C549 759 540 762 535 767C528 773 529 774 547 792C564 810 563 807 558 823C549 853 561 865 585 849C610 832 606 831 632 850C650 864 660 846 650 817C646 807 647 805 656 799C667 789 678 776 678 771C678 763 664 759 635 758C625 757 626 758 624 747C620 724 611 714 600 721ZM387 724C383 727 381 730 375 746C369 761 371 760 354 761C336 762 327 765 322 770C315 776 316 777 334 795C351 813 350 810 345 826C336 856 348 868 372 852C397 835 393 834 419 853C437 867 447 849 437 820C433 810 434 808 443 802C454 792 465 779 465 774C465 766 451 762 422 761C412 760 413 761 411 750C407 727 398 717 387 724ZM168 726C164 729 162 732 156 748C150 763 152 762 135 763C117 764 108 767 103 772C96 778 97 779 115 797C132 815 131 812 126 828C117 858 129 870 153 854C178 837 174 836 200 855C218 869 228 851 218 822C214 812 215 810 224 804C235 794 246 781 246 776C246 768 232 764 203 763C193 762 194 763 192 752C188 729 179 719 168 726Z" fill="black"/>
<path fill-rule="evenodd" clip-rule="evenodd" d="M595 143C551 148 530 173 554 191C580 212 660 208 682 185C706 159 658 136 595 143ZM901 168C904 171 906 170 875 179C661.212 241.253 447.545 303.919 234 367C223 370 221 370 223 368H222C220 370 219 390 220 422C221 445 221 445 229 446C298 446 299 559 230 576C219 579 220 577 220 608C220 633 220 633 294 632C376 632 370 632 371 628C376 600 413 577 443 583L452 584C467 586 484 600 494 619C499 629 494 628 552 628C625 628 639 627 642 624C653 612 663 608 712 596C752.615 586.059 792.962 575.056 833 563L917 539C930 535 929 538 930 510C933 420 933 419 927 419C851 419 844 307 919 294C932 292 931 295 932 257C933 203 931 195 916 180C908 172 898 164 901 168ZM416 198C402 199 384 206 374 213C341 237 397 260 453 245C510 230 480 193 416 198ZM682 378C675.165 380.411 669.032 384.474 664.146 389.826C659.259 395.178 655.77 401.655 653.989 408.68C652.208 415.706 652.19 423.062 653.936 430.096C655.683 437.13 659.14 443.624 664 449C699 487 758 444 734 399C729.128 389.998 721.27 382.975 711.779 379.142C702.288 375.309 691.757 374.905 682 378ZM416 386C378 399 374 449 409 465C448 484 487 439 463 403C457.815 395.733 450.543 390.215 442.148 387.179C433.753 384.142 424.634 383.731 416 386ZM609 455C605 456 602 458 597 466C579 494 544 494 524 467C506 441 482 468 499 496C523 538 595 537 624 495C638 475 628 449 609 455ZM1021 717C1017 720 1015 723 1009 739C1003 754 1005 753 988 754C970 755 961 758 956 763C949 769 950 770 968 788C985 806 984 803 979 819C970 849 982 861 1006 845C1031 828 1027 827 1053 846C1071 860 1081 842 1071 813C1067 803 1068 801 1077 795C1088 785 1099 772 1099 767C1099 759 1085 755 1056 754C1046 753 1047 754 1045 743C1041 720 1032 710 1021 717ZM809 719C805 722 803 725 797 741C791 756 793 755 776 756C758 757 749 760 744 765C737 771 738 772 756 790C773 808 772 805 767 821C758 851 770 863 794 847C819 830 815 829 841 848C859 862 869 844 859 815C855 805 856 803 865 797C876 787 887 774 887 769C887 761 873 757 844 756C834 755 835 756 833 745C829 722 820 712 809 719ZM600 721C596 724 594 727 588 743C582 758 584 757 567 758C549 759 540 762 535 767C528 773 529 774 547 792C564 810 563 807 558 823C549 853 561 865 585 849C610 832 606 831 632 850C650 864 660 846 650 817C646 807 647 805 656 799C667 789 678 776 678 771C678 763 664 759 635 758C625 757 626 758 624 747C620 724 611 714 600 721ZM387 724C383 727 381 730 375 746C369 761 371 760 354 761C336 762 327 765 322 770C315 776 316 777 334 795C351 813 350 810 345 826C336 856 348 868 372 852C397 835 393 834 419 853C437 867 447 849 437 820C433 810 434 808 443 802C454 792 465 779 465 774C465 766 451 762 422 761C412 760 413 761 411 750C407 727 398 717 387 724ZM168 726C164 729 162 732 156 748C150 763 152 762 135 763C117 764 108 767 103 772C96 778 97 779 115 797C132 815 131 812 126 828C117 858 129 870 153 854C178 837 174 836 200 855C218 869 228 851 218 822C214 812 215 810 224 804C235 794 246 781 246 776C246 768 232 764 203 763C193 762 194 763 192 752C188 729 179 719 168 726Z" fill="#FBD640"/>
</svg>
