<?xml version="1.0" standalone="no"?>
<!DOCTYPE svg PUBLIC "-//W3C//DTD SVG 20010904//EN"
 "http://www.w3.org/TR/2001/REC-SVG-20010904/DTD/svg10.dtd">
<svg version="1.0" xmlns="http://www.w3.org/2000/svg"
 width="1179.000000pt" height="1179.000000pt" viewBox="0 0 1179.000000 1179.000000"
 preserveAspectRatio="xMidYMid meet">
<metadata>
Created by potrace 1.14, written by Peter Selinger 2001-2017
</metadata>
<g transform="translate(0.000000,1179.000000) scale(0.100000,-0.100000)"
fill="#000000" stroke="none">
<path d="M4895 10549 c-213 -10 -246 -23 -343 -139 -140 -169 -272 -316 -393
-440 -178 -183 -913 -1033 -1499 -1735 -124 -148 -305 -361 -404 -473 -263
-301 -438 -525 -472 -607 -8 -21 -18 -96 -24 -183 -12 -181 -12 -1031 -1
-1091 10 -51 37 -91 75 -109 17 -9 95 -17 204 -23 96 -5 187 -15 201 -22 14
-7 36 -32 48 -57 77 -151 -67 -327 -295 -362 -158 -25 -210 -53 -233 -127 -7
-22 -15 -184 -20 -406 -4 -203 -11 -383 -15 -399 -11 -45 -44 -54 -404 -116
-154 -27 -186 -36 -270 -76 -253 -121 -465 -293 -624 -504 -66 -87 -186 -334
-230 -473 -62 -195 -71 -252 -71 -457 1 -167 3 -195 28 -292 28 -114 85 -271
116 -322 11 -17 38 -69 62 -115 67 -134 239 -328 402 -453 146 -111 298 -192
467 -247 l95 -30 550 -11 c2590 -48 5703 -36 8255 31 393 10 419 12 500 36
353 102 632 294 831 573 117 164 241 414 268 540 62 296 51 572 -34 825 -38
115 -135 312 -209 424 -102 154 -178 234 -380 397 -54 43 -116 93 -138 111
-67 54 -270 171 -318 183 -69 17 -733 29 -1715 30 -489 1 -908 5 -930 9 l-40
7 55 12 c30 6 116 23 190 36 351 66 960 250 1430 432 l135 52 8 119 c4 65 6
467 5 893 l-3 775 -22 35 c-38 61 -106 88 -295 115 -212 30 -305 104 -283 223
9 50 85 124 151 146 27 9 87 21 134 26 106 13 201 44 242 78 61 52 69 89 80
366 11 263 -4 956 -22 1065 -30 174 -204 396 -425 543 -131 86 -468 280 -670
384 -495 256 -1042 449 -1600 564 -104 21 -273 59 -375 84 -108 26 -233 49
-300 56 -63 6 -151 17 -195 25 -296 54 -932 91 -1280 74z m505 -459 c934 -51
1795 -237 2620 -568 680 -272 1130 -555 1243 -781 52 -104 60 -181 55 -585 -4
-415 4 -391 -129 -418 -101 -21 -196 -58 -256 -100 -116 -79 -210 -216 -249
-358 -21 -79 -24 -243 -5 -320 22 -95 94 -229 152 -289 108 -109 207 -156 371
-174 l98 -11 11 -35 c18 -53 -6 -1055 -26 -1104 -4 -10 -16 -22 -26 -28 -11
-5 -214 -66 -452 -134 -238 -68 -567 -162 -732 -210 -324 -94 -434 -123 -912
-245 -501 -127 -605 -164 -691 -244 -26 -25 -61 -50 -77 -56 -55 -21 -386 -31
-885 -28 -374 2 -500 6 -517 16 -12 6 -36 38 -53 70 -112 210 -268 330 -466
358 -134 19 -197 17 -286 -5 -232 -60 -438 -245 -476 -428 -7 -36 -10 -38 -56
-46 -27 -4 -335 -6 -685 -4 -691 3 -684 3 -738 59 l-28 29 -3 200 c-4 243 -7
236 109 274 109 35 185 74 247 127 152 130 238 316 249 538 8 172 -33 319
-122 437 -89 118 -200 175 -376 194 -53 5 -96 15 -101 22 -5 6 -7 176 -6 377
l3 365 139 175 c224 281 551 669 766 910 42 47 112 128 155 180 109 130 312
366 410 475 45 50 112 128 150 175 328 403 696 820 964 1093 l106 107 160 0
c88 0 243 -5 345 -10z m4956 -6604 c45 -48 73 -117 94 -238 18 -101 17 -100
166 -109 264 -17 374 -55 374 -130 0 -47 -144 -224 -241 -295 -27 -19 -52 -47
-55 -60 -4 -14 5 -64 20 -117 46 -164 44 -280 -6 -334 -48 -52 -112 -35 -240
61 -93 70 -158 100 -199 91 -16 -4 -78 -39 -137 -78 -166 -110 -246 -136 -311
-102 -40 20 -56 67 -55 160 1 55 10 110 29 176 18 62 25 106 21 123 -3 14 -53
75 -109 134 -158 166 -187 200 -187 223 0 25 49 73 104 101 50 26 168 47 266
48 123 2 139 11 178 105 102 244 132 285 211 285 28 0 43 -9 77 -44z m-2122
-19 c46 -48 71 -108 97 -235 9 -46 21 -88 26 -93 6 -6 68 -14 139 -20 265 -19
374 -57 374 -130 0 -47 -144 -224 -241 -295 -62 -45 -68 -68 -40 -154 55 -171
51 -313 -10 -365 -52 -43 -92 -31 -238 75 -158 113 -169 113 -328 8 -167 -111
-247 -137 -312 -103 -63 32 -73 160 -26 332 16 61 25 112 21 127 -3 14 -69 92
-146 173 -77 81 -143 158 -146 170 -8 29 8 55 55 87 70 48 149 67 345 82 110
8 111 9 173 164 71 179 104 219 182 220 28 0 42 -8 75 -43z m-2088 -21 c45
-48 73 -117 94 -238 7 -37 17 -74 24 -83 9 -12 42 -18 141 -26 266 -19 375
-57 375 -129 0 -47 -147 -226 -240 -295 -28 -20 -53 -48 -56 -61 -4 -14 6 -65
22 -122 21 -71 28 -120 29 -182 0 -94 -13 -130 -57 -163 -48 -36 -77 -23 -286
124 -53 37 -71 44 -110 44 -42 0 -59 -8 -152 -71 -131 -89 -178 -113 -235
-121 -57 -7 -101 11 -123 51 -27 50 -22 179 13 297 18 61 25 106 21 122 -3 15
-69 93 -146 174 -135 142 -159 176 -147 208 11 26 89 75 154 95 34 11 123 24
195 31 73 6 140 15 149 20 9 4 29 39 44 76 73 178 113 252 147 273 55 33 95
27 144 -24z m-2143 -16 c44 -38 84 -129 107 -242 10 -49 22 -94 28 -100 6 -6
66 -14 134 -19 272 -21 378 -57 378 -130 0 -47 -144 -224 -241 -295 -27 -20
-52 -47 -55 -61 -4 -15 4 -59 20 -113 51 -165 45 -294 -15 -344 -53 -44 -91
-33 -232 68 -96 69 -145 96 -175 96 -30 0 -67 -20 -175 -92 -165 -111 -255
-135 -310 -84 -55 51 -58 149 -11 327 16 58 24 108 20 123 -3 14 -69 92 -146
173 -77 81 -143 158 -146 171 -13 49 61 108 170 136 33 9 115 20 183 26 68 5
132 14 142 20 21 11 33 34 86 170 21 52 48 112 61 132 46 73 120 88 177 38z
m-2204 -6 c53 -31 94 -123 122 -271 18 -95 17 -95 160 -105 231 -16 339 -46
369 -101 14 -25 13 -30 -14 -82 -27 -51 -163 -200 -244 -266 -40 -33 -41 -56
-6 -164 49 -154 42 -279 -18 -330 -51 -43 -86 -33 -223 65 -92 66 -155 100
-185 100 -28 0 -67 -21 -173 -92 -166 -112 -255 -135 -311 -83 -64 59 -63 144
5 381 7 22 9 53 5 68 -4 16 -51 74 -109 135 -142 147 -187 200 -187 224 0 30
63 83 126 106 49 19 105 27 312 47 67 7 80 20 121 120 69 168 99 223 133 244
40 24 80 26 117 4z"/>
<path d="M6856 6910 c-116 -30 -234 -131 -289 -247 -60 -129 -47 -302 32 -417
44 -64 126 -135 189 -164 51 -24 69 -27 167 -27 104 0 114 2 182 34 89 41 181
132 221 218 24 53 27 69 27 173 0 110 -2 118 -33 182 -49 100 -109 161 -207
209 -73 36 -92 41 -166 45 -46 2 -101 -1 -123 -6z"/>
<path d="M4129 6807 c-71 -30 -103 -53 -162 -116 -128 -137 -153 -340 -61
-497 57 -97 189 -183 309 -202 178 -28 362 73 446 244 32 65 34 74 34 179 0
105 -2 113 -34 177 -42 85 -119 159 -208 201 -60 28 -80 32 -168 35 -87 2
-107 0 -156 -21z"/>
<path d="M6090 6128 c-44 -12 -72 -38 -120 -109 -120 -175 -300 -246 -481
-189 -91 28 -143 64 -237 167 -114 124 -168 144 -245 91 -55 -39 -84 -136 -67
-227 27 -147 143 -290 300 -369 109 -54 180 -72 310 -79 296 -16 606 143 716
366 32 66 44 177 24 235 -16 48 -56 95 -97 112 -37 16 -54 16 -103 2z"/>
</g>
</svg>
